<mxfile host="drawio-plugin" agent="Mozilla/5.0 (Windows NT 10.0; Win64; x64) AppleWebKit/537.36 (KHTML, like Gecko) Chrome/122.0.0.0 Safari/537.36" modified="2025-01-04T16:11:36.195Z" version="22.1.22" etag="rSF2_1-Po1XQmxgDKKtm" type="embed">
  <diagram name="Страница — 1" id="lG45MJzpHhoRFiAxLtyR">
    <mxGraphModel dx="2260" dy="3842" grid="1" gridSize="10" guides="1" tooltips="1" connect="1" arrows="1" fold="1" page="1" pageScale="1" pageWidth="827" pageHeight="1169" math="0" shadow="0">
      <root>
        <mxCell id="0" />
        <mxCell id="1" parent="0" />
        <mxCell id="5PqPLyIiXaar_8xf2ug1-1" value="Class name:&lt;br&gt;DictionaryEntry" style="swimlane;fontStyle=0;align=center;verticalAlign=top;childLayout=stackLayout;horizontal=1;startSize=55;horizontalStack=0;resizeParent=1;resizeParentMax=0;resizeLast=0;collapsible=0;marginBottom=0;html=1;whiteSpace=wrap;" parent="1" vertex="1">
          <mxGeometry x="230" y="10" width="140" height="232" as="geometry" />
        </mxCell>
        <mxCell id="5PqPLyIiXaar_8xf2ug1-2" value="attributes" style="text;html=1;strokeColor=none;fillColor=none;align=center;verticalAlign=middle;spacingLeft=4;spacingRight=4;overflow=hidden;rotatable=0;points=[[0,0.5],[1,0.5]];portConstraint=eastwest;whiteSpace=wrap;" parent="5PqPLyIiXaar_8xf2ug1-1" vertex="1">
          <mxGeometry y="55" width="140" height="20" as="geometry" />
        </mxCell>
        <mxCell id="5PqPLyIiXaar_8xf2ug1-3" value="&lt;div&gt;word: str&amp;nbsp; &amp;nbsp; &amp;nbsp; &amp;nbsp;&lt;/div&gt;&lt;div&gt;meanings: list&lt;/div&gt;" style="text;html=1;strokeColor=none;fillColor=none;align=left;verticalAlign=middle;spacingLeft=4;spacingRight=4;overflow=hidden;rotatable=0;points=[[0,0.5],[1,0.5]];portConstraint=eastwest;whiteSpace=wrap;" parent="5PqPLyIiXaar_8xf2ug1-1" vertex="1">
          <mxGeometry y="75" width="140" height="75" as="geometry" />
        </mxCell>
        <mxCell id="5PqPLyIiXaar_8xf2ug1-6" value="" style="line;strokeWidth=1;fillColor=none;align=left;verticalAlign=middle;spacingTop=-1;spacingLeft=3;spacingRight=3;rotatable=0;labelPosition=right;points=[];portConstraint=eastwest;" parent="5PqPLyIiXaar_8xf2ug1-1" vertex="1">
          <mxGeometry y="150" width="140" height="15" as="geometry" />
        </mxCell>
        <mxCell id="5PqPLyIiXaar_8xf2ug1-7" value="methods" style="text;html=1;strokeColor=none;fillColor=none;align=center;verticalAlign=middle;spacingLeft=4;spacingRight=4;overflow=hidden;rotatable=0;points=[[0,0.5],[1,0.5]];portConstraint=eastwest;whiteSpace=wrap;" parent="5PqPLyIiXaar_8xf2ug1-1" vertex="1">
          <mxGeometry y="165" width="140" height="17" as="geometry" />
        </mxCell>
        <mxCell id="5PqPLyIiXaar_8xf2ug1-8" value="&lt;div&gt;&amp;nbsp;__str__()&amp;nbsp; &amp;nbsp; &amp;nbsp; &amp;nbsp;&lt;/div&gt;&lt;div&gt;&amp;nbsp;to_dict()&amp;nbsp; &amp;nbsp; &amp;nbsp; &amp;nbsp;&lt;/div&gt;&lt;div&gt;from_dict(data)&lt;/div&gt;" style="text;html=1;strokeColor=none;fillColor=none;align=left;verticalAlign=middle;spacingLeft=4;spacingRight=4;overflow=hidden;rotatable=0;points=[[0,0.5],[1,0.5]];portConstraint=eastwest;whiteSpace=wrap;" parent="5PqPLyIiXaar_8xf2ug1-1" vertex="1">
          <mxGeometry y="182" width="140" height="50" as="geometry" />
        </mxCell>
        <mxCell id="5" style="edgeStyle=orthogonalEdgeStyle;rounded=0;orthogonalLoop=1;jettySize=auto;html=1;entryX=0.423;entryY=1.021;entryDx=0;entryDy=0;entryPerimeter=0;exitX=-0.001;exitY=0.136;exitDx=0;exitDy=0;exitPerimeter=0;" edge="1" parent="1" source="5PqPLyIiXaar_8xf2ug1-18">
          <mxGeometry relative="1" as="geometry">
            <mxPoint x="274.22" y="242.00000000000017" as="targetPoint" />
            <mxPoint x="455" y="484" as="sourcePoint" />
            <Array as="points">
              <mxPoint x="335" y="484" />
              <mxPoint x="274" y="485" />
            </Array>
          </mxGeometry>
        </mxCell>
        <mxCell id="5PqPLyIiXaar_8xf2ug1-11" value="&lt;div&gt;Сlass name:&lt;/div&gt;Dictionary&amp;nbsp;&amp;nbsp;" style="swimlane;fontStyle=0;align=center;verticalAlign=top;childLayout=stackLayout;horizontal=1;startSize=55;horizontalStack=0;resizeParent=1;resizeParentMax=0;resizeLast=0;collapsible=0;marginBottom=0;html=1;whiteSpace=wrap;" parent="1" vertex="1">
          <mxGeometry x="470" y="260" width="150" height="410" as="geometry" />
        </mxCell>
        <mxCell id="5PqPLyIiXaar_8xf2ug1-12" value="attributes" style="text;html=1;strokeColor=none;fillColor=none;align=center;verticalAlign=middle;spacingLeft=4;spacingRight=4;overflow=hidden;rotatable=0;points=[[0,0.5],[1,0.5]];portConstraint=eastwest;whiteSpace=wrap;" parent="5PqPLyIiXaar_8xf2ug1-11" vertex="1">
          <mxGeometry y="55" width="150" height="20" as="geometry" />
        </mxCell>
        <mxCell id="5PqPLyIiXaar_8xf2ug1-13" value="&lt;div&gt;&amp;nbsp; __name: str&amp;nbsp; &amp;nbsp; &amp;nbsp;&lt;/div&gt;&lt;div&gt;&amp;nbsp;__type: str&amp;nbsp; &amp;nbsp; &amp;nbsp;&lt;/div&gt;&lt;div&gt;&amp;nbsp;entries: dict&amp;nbsp;&lt;/div&gt;" style="text;html=1;strokeColor=none;fillColor=none;align=left;verticalAlign=middle;spacingLeft=4;spacingRight=4;overflow=hidden;rotatable=0;points=[[0,0.5],[1,0.5]];portConstraint=eastwest;whiteSpace=wrap;" parent="5PqPLyIiXaar_8xf2ug1-11" vertex="1">
          <mxGeometry y="75" width="150" height="95" as="geometry" />
        </mxCell>
        <mxCell id="5PqPLyIiXaar_8xf2ug1-16" value="" style="line;strokeWidth=1;fillColor=none;align=left;verticalAlign=middle;spacingTop=-1;spacingLeft=3;spacingRight=3;rotatable=0;labelPosition=right;points=[];portConstraint=eastwest;" parent="5PqPLyIiXaar_8xf2ug1-11" vertex="1">
          <mxGeometry y="170" width="150" height="8" as="geometry" />
        </mxCell>
        <mxCell id="5PqPLyIiXaar_8xf2ug1-17" value="methods" style="text;html=1;strokeColor=none;fillColor=none;align=center;verticalAlign=middle;spacingLeft=4;spacingRight=4;overflow=hidden;rotatable=0;points=[[0,0.5],[1,0.5]];portConstraint=eastwest;whiteSpace=wrap;" parent="5PqPLyIiXaar_8xf2ug1-11" vertex="1">
          <mxGeometry y="178" width="150" height="17" as="geometry" />
        </mxCell>
        <mxCell id="5PqPLyIiXaar_8xf2ug1-18" value="&lt;div&gt;&amp;nbsp;set_name(name)&amp;nbsp;&amp;nbsp;&lt;/div&gt;&lt;div&gt;&lt;span style=&quot;font-size: 10px;&quot;&gt;get_name()&amp;nbsp; &amp;nbsp; &amp;nbsp;&lt;/span&gt;&lt;/div&gt;&lt;div&gt;&lt;span style=&quot;font-size: 10px;&quot;&gt;set_type(type)&amp;nbsp;&amp;nbsp;&lt;/span&gt;&lt;/div&gt;&lt;div&gt;&lt;span style=&quot;font-size: 10px;&quot;&gt;get_type()&amp;nbsp; &amp;nbsp; &amp;nbsp;&amp;nbsp;&lt;/span&gt;&lt;/div&gt;&lt;div&gt;&lt;span style=&quot;font-size: 10px;&quot;&gt;add_entry(word, meanings)&amp;nbsp;&lt;/span&gt;&lt;/div&gt;&lt;div&gt;&lt;span style=&quot;font-size: 10px;&quot;&gt;edit_entry(word, new_meanings)&amp;nbsp;&lt;/span&gt;&lt;/div&gt;&lt;div&gt;&lt;span style=&quot;font-size: 10px;&quot;&gt;delete_entry(word)&amp;nbsp;&lt;/span&gt;&lt;/div&gt;&lt;div&gt;&lt;span style=&quot;font-size: 10px;&quot;&gt;search_entry(word)&amp;nbsp;&lt;/span&gt;&lt;/div&gt;&lt;div&gt;&lt;span style=&quot;font-size: 10px;&quot;&gt;save_to_file()&amp;nbsp;&amp;nbsp;&lt;/span&gt;&lt;/div&gt;&lt;div&gt;&lt;span style=&quot;font-size: 10px;&quot;&gt;load_from_file()&lt;/span&gt;&lt;/div&gt;" style="text;html=1;strokeColor=none;fillColor=none;align=left;verticalAlign=middle;spacingLeft=4;spacingRight=4;overflow=hidden;rotatable=0;points=[[0,0.5],[1,0.5]];portConstraint=eastwest;whiteSpace=wrap;" parent="5PqPLyIiXaar_8xf2ug1-11" vertex="1">
          <mxGeometry y="195" width="150" height="215" as="geometry" />
        </mxCell>
        <mxCell id="5PqPLyIiXaar_8xf2ug1-23" value="&lt;div&gt;Class name:&lt;/div&gt; Menu  " style="swimlane;fontStyle=0;align=center;verticalAlign=top;childLayout=stackLayout;horizontal=1;startSize=55;horizontalStack=0;resizeParent=1;resizeParentMax=0;resizeLast=0;collapsible=0;marginBottom=0;html=1;whiteSpace=wrap;" parent="1" vertex="1">
          <mxGeometry x="160" y="860" width="200" height="250" as="geometry" />
        </mxCell>
        <mxCell id="5PqPLyIiXaar_8xf2ug1-24" value="attributes" style="text;html=1;strokeColor=none;fillColor=none;align=center;verticalAlign=middle;spacingLeft=4;spacingRight=4;overflow=hidden;rotatable=0;points=[[0,0.5],[1,0.5]];portConstraint=eastwest;whiteSpace=wrap;" parent="5PqPLyIiXaar_8xf2ug1-23" vertex="1">
          <mxGeometry y="55" width="200" height="20" as="geometry" />
        </mxCell>
        <mxCell id="5PqPLyIiXaar_8xf2ug1-25" value="options: list     " style="text;html=1;strokeColor=none;fillColor=none;align=left;verticalAlign=middle;spacingLeft=4;spacingRight=4;overflow=hidden;rotatable=0;points=[[0,0.5],[1,0.5]];portConstraint=eastwest;whiteSpace=wrap;" parent="5PqPLyIiXaar_8xf2ug1-23" vertex="1">
          <mxGeometry y="75" width="200" height="20" as="geometry" />
        </mxCell>
        <mxCell id="5PqPLyIiXaar_8xf2ug1-27" value="" style="line;strokeWidth=1;fillColor=none;align=left;verticalAlign=middle;spacingTop=-1;spacingLeft=3;spacingRight=3;rotatable=0;labelPosition=right;points=[];portConstraint=eastwest;" parent="5PqPLyIiXaar_8xf2ug1-23" vertex="1">
          <mxGeometry y="95" width="200" height="8" as="geometry" />
        </mxCell>
        <mxCell id="5PqPLyIiXaar_8xf2ug1-28" value="methods" style="text;html=1;strokeColor=none;fillColor=none;align=center;verticalAlign=middle;spacingLeft=4;spacingRight=4;overflow=hidden;rotatable=0;points=[[0,0.5],[1,0.5]];portConstraint=eastwest;whiteSpace=wrap;" parent="5PqPLyIiXaar_8xf2ug1-23" vertex="1">
          <mxGeometry y="103" width="200" height="17" as="geometry" />
        </mxCell>
        <mxCell id="5PqPLyIiXaar_8xf2ug1-70" value="&lt;div&gt;&amp;nbsp;add_option(option: MenuOption)&amp;nbsp;&lt;/div&gt;&lt;div&gt;&amp;nbsp;show_menu()&amp;nbsp; &amp;nbsp; &amp;nbsp;&lt;/div&gt;&lt;div&gt;&amp;nbsp;manage_dictionaries()&lt;/div&gt;&lt;div&gt;&amp;nbsp;work_with_dictionary()&amp;nbsp;&lt;/div&gt;" style="text;whiteSpace=wrap;html=1;" parent="5PqPLyIiXaar_8xf2ug1-23" vertex="1">
          <mxGeometry y="120" width="200" height="130" as="geometry" />
        </mxCell>
        <mxCell id="5PqPLyIiXaar_8xf2ug1-33" value="&lt;div&gt;Class name:&lt;/div&gt; MenuOption   " style="swimlane;fontStyle=0;align=center;verticalAlign=top;childLayout=stackLayout;horizontal=1;startSize=55;horizontalStack=0;resizeParent=1;resizeParentMax=0;resizeLast=0;collapsible=0;marginBottom=0;html=1;whiteSpace=wrap;" parent="1" vertex="1">
          <mxGeometry x="180" y="630" width="140" height="180" as="geometry" />
        </mxCell>
        <mxCell id="5PqPLyIiXaar_8xf2ug1-34" value="attributes" style="text;html=1;strokeColor=none;fillColor=none;align=center;verticalAlign=middle;spacingLeft=4;spacingRight=4;overflow=hidden;rotatable=0;points=[[0,0.5],[1,0.5]];portConstraint=eastwest;whiteSpace=wrap;" parent="5PqPLyIiXaar_8xf2ug1-33" vertex="1">
          <mxGeometry y="55" width="140" height="20" as="geometry" />
        </mxCell>
        <mxCell id="5PqPLyIiXaar_8xf2ug1-41" value="&lt;div&gt;&amp;nbsp;name: str&amp;nbsp; &amp;nbsp; &amp;nbsp; &amp;nbsp;&lt;/div&gt;&lt;div&gt;&amp;nbsp;action: callable&lt;/div&gt;" style="text;whiteSpace=wrap;html=1;" parent="5PqPLyIiXaar_8xf2ug1-33" vertex="1">
          <mxGeometry y="75" width="140" height="40" as="geometry" />
        </mxCell>
        <mxCell id="5PqPLyIiXaar_8xf2ug1-36" value="" style="line;strokeWidth=1;fillColor=none;align=left;verticalAlign=middle;spacingTop=-1;spacingLeft=3;spacingRight=3;rotatable=0;labelPosition=right;points=[];portConstraint=eastwest;" parent="5PqPLyIiXaar_8xf2ug1-33" vertex="1">
          <mxGeometry y="115" width="140" height="8" as="geometry" />
        </mxCell>
        <mxCell id="5PqPLyIiXaar_8xf2ug1-37" value="methods" style="text;html=1;strokeColor=none;fillColor=none;align=center;verticalAlign=middle;spacingLeft=4;spacingRight=4;overflow=hidden;rotatable=0;points=[[0,0.5],[1,0.5]];portConstraint=eastwest;whiteSpace=wrap;" parent="5PqPLyIiXaar_8xf2ug1-33" vertex="1">
          <mxGeometry y="123" width="140" height="17" as="geometry" />
        </mxCell>
        <mxCell id="5PqPLyIiXaar_8xf2ug1-39" value="&amp;nbsp;__init__(name, action)" style="text;whiteSpace=wrap;html=1;" parent="5PqPLyIiXaar_8xf2ug1-33" vertex="1">
          <mxGeometry y="140" width="140" height="40" as="geometry" />
        </mxCell>
        <mxCell id="7" style="edgeStyle=orthogonalEdgeStyle;rounded=0;orthogonalLoop=1;jettySize=auto;html=1;entryX=0.4;entryY=1;entryDx=0;entryDy=0;entryPerimeter=0;" edge="1" parent="1" source="5PqPLyIiXaar_8xf2ug1-57" target="5PqPLyIiXaar_8xf2ug1-18">
          <mxGeometry relative="1" as="geometry">
            <mxPoint x="510" y="820" as="targetPoint" />
            <Array as="points">
              <mxPoint x="590" y="820" />
              <mxPoint x="530" y="821" />
            </Array>
          </mxGeometry>
        </mxCell>
        <mxCell id="5PqPLyIiXaar_8xf2ug1-57" value="&lt;div&gt;Class name:&lt;/div&gt;DictionaryManager&amp;nbsp;" style="swimlane;fontStyle=0;align=center;verticalAlign=top;childLayout=stackLayout;horizontal=1;startSize=55;horizontalStack=0;resizeParent=1;resizeParentMax=0;resizeLast=0;collapsible=0;marginBottom=0;html=1;whiteSpace=wrap;" parent="1" vertex="1">
          <mxGeometry x="670" y="700" width="170" height="240" as="geometry" />
        </mxCell>
        <mxCell id="5PqPLyIiXaar_8xf2ug1-58" value="attributes" style="text;html=1;strokeColor=none;fillColor=none;align=center;verticalAlign=middle;spacingLeft=4;spacingRight=4;overflow=hidden;rotatable=0;points=[[0,0.5],[1,0.5]];portConstraint=eastwest;whiteSpace=wrap;" parent="5PqPLyIiXaar_8xf2ug1-57" vertex="1">
          <mxGeometry y="55" width="170" height="20" as="geometry" />
        </mxCell>
        <mxCell id="5PqPLyIiXaar_8xf2ug1-59" value="&lt;div&gt;dictionaries: dict&amp;nbsp;&lt;/div&gt;&lt;div&gt;current_dictionary:Dictionary&amp;nbsp;&lt;/div&gt;" style="text;html=1;strokeColor=none;fillColor=none;align=left;verticalAlign=middle;spacingLeft=4;spacingRight=4;overflow=hidden;rotatable=0;points=[[0,0.5],[1,0.5]];portConstraint=eastwest;whiteSpace=wrap;" parent="5PqPLyIiXaar_8xf2ug1-57" vertex="1">
          <mxGeometry y="75" width="170" height="45" as="geometry" />
        </mxCell>
        <mxCell id="5PqPLyIiXaar_8xf2ug1-60" value="" style="line;strokeWidth=1;fillColor=none;align=left;verticalAlign=middle;spacingTop=-1;spacingLeft=3;spacingRight=3;rotatable=0;labelPosition=right;points=[];portConstraint=eastwest;" parent="5PqPLyIiXaar_8xf2ug1-57" vertex="1">
          <mxGeometry y="120" width="170" height="8" as="geometry" />
        </mxCell>
        <mxCell id="5PqPLyIiXaar_8xf2ug1-61" value="methods" style="text;html=1;strokeColor=none;fillColor=none;align=center;verticalAlign=middle;spacingLeft=4;spacingRight=4;overflow=hidden;rotatable=0;points=[[0,0.5],[1,0.5]];portConstraint=eastwest;whiteSpace=wrap;" parent="5PqPLyIiXaar_8xf2ug1-57" vertex="1">
          <mxGeometry y="128" width="170" height="17" as="geometry" />
        </mxCell>
        <mxCell id="5PqPLyIiXaar_8xf2ug1-63" value="&lt;div&gt;&amp;nbsp;create_dictionary(name, type)&amp;nbsp;&lt;/div&gt;&lt;div&gt;select_dictionary(name)&amp;nbsp;&lt;/div&gt;&lt;div&gt;delete_dictionary(name)&amp;nbsp;&lt;/div&gt;&lt;div&gt;list_dictionaries()&amp;nbsp;&lt;/div&gt;" style="text;whiteSpace=wrap;html=1;" parent="5PqPLyIiXaar_8xf2ug1-57" vertex="1">
          <mxGeometry y="145" width="170" height="95" as="geometry" />
        </mxCell>
        <mxCell id="5PqPLyIiXaar_8xf2ug1-79" value="&lt;div style=&quot;text-align: center;&quot;&gt;&lt;p style=&quot;mso-margin-top-alt:auto;mso-margin-bottom-alt:&lt;br/&gt;auto;text-align:left;line-height:normal;mso-outline-level:3&quot; align=&quot;left&quot; class=&quot;MsoNormal&quot;&gt;&lt;b&gt;Клас &lt;/b&gt;&lt;b&gt;&lt;span style=&quot;font-size:&lt;br/&gt;10.0pt;font-family:&amp;quot;Courier New&amp;quot;;mso-fareast-font-family:&amp;quot;Times New Roman&amp;quot;;&lt;br/&gt;mso-font-kerning:0pt;mso-ligatures:none;mso-ansi-language:#2000;mso-fareast-language:&lt;br/&gt;#2000&quot;&gt;DictionaryEntry&lt;/span&gt;&lt;/b&gt;&lt;b&gt;&lt;span style=&quot;font-size:13.5pt;font-family:&lt;br/&gt;&amp;quot;Times New Roman&amp;quot;,serif;mso-fareast-font-family:&amp;quot;Times New Roman&amp;quot;;mso-font-kerning:&lt;br/&gt;0pt;mso-ligatures:none;mso-ansi-language:#2000;mso-fareast-language:#2000&quot;&gt;:&lt;/span&gt;&lt;/b&gt;&lt;/p&gt;&lt;ul type=&quot;disc&quot;&gt;&lt;br/&gt; &lt;li style=&quot;mso-margin-top-alt:auto;mso-margin-bottom-alt:auto;&lt;br/&gt;     text-align:left;line-height:normal;mso-list:l5 level1 lfo1;tab-stops:list 36.0pt&quot; class=&quot;MsoNormal&quot;&gt;&lt;b&gt;&lt;span style=&quot;font-size:12.0pt;font-family:&amp;quot;Times New Roman&amp;quot;,serif;mso-fareast-font-family:&lt;br/&gt;     &amp;quot;Times New Roman&amp;quot;;mso-font-kerning:0pt;mso-ligatures:none;mso-ansi-language:&lt;br/&gt;     #2000;mso-fareast-language:#2000&quot;&gt;Конструктор (&lt;/span&gt;&lt;/b&gt;&lt;b&gt;&lt;span style=&quot;font-size:10.0pt;font-family:&amp;quot;Courier New&amp;quot;;mso-fareast-font-family:&lt;br/&gt;     &amp;quot;Times New Roman&amp;quot;;mso-font-kerning:0pt;mso-ligatures:none;mso-ansi-language:&lt;br/&gt;     #2000;mso-fareast-language:#2000&quot;&gt;__init__&lt;/span&gt;&lt;/b&gt;&lt;b&gt;&lt;span style=&quot;font-size:12.0pt;font-family:&amp;quot;Times New Roman&amp;quot;,serif;mso-fareast-font-family:&lt;br/&gt;     &amp;quot;Times New Roman&amp;quot;;mso-font-kerning:0pt;mso-ligatures:none;mso-ansi-language:&lt;br/&gt;     #2000;mso-fareast-language:#2000&quot;&gt;)&lt;/span&gt;&lt;/b&gt;&lt;span style=&quot;font-size:12.0pt;&lt;br/&gt;     font-family:&amp;quot;Times New Roman&amp;quot;,serif;mso-fareast-font-family:&amp;quot;Times New Roman&amp;quot;;&lt;br/&gt;     mso-font-kerning:0pt;mso-ligatures:none;mso-ansi-language:#2000;&lt;br/&gt;     mso-fareast-language:#2000&quot;&gt;: Ініціалізує об&#39;єкт, що містить слово та&lt;br/&gt;     список його значень (тлумачень).&lt;/span&gt;&lt;/li&gt;&lt;br/&gt; &lt;li style=&quot;mso-margin-top-alt:auto;mso-margin-bottom-alt:auto;&lt;br/&gt;     text-align:left;line-height:normal;mso-list:l5 level1 lfo1;tab-stops:list 36.0pt&quot; class=&quot;MsoNormal&quot;&gt;&lt;b&gt;&lt;span style=&quot;font-size:12.0pt;font-family:&amp;quot;Times New Roman&amp;quot;,serif;mso-fareast-font-family:&lt;br/&gt;     &amp;quot;Times New Roman&amp;quot;;mso-font-kerning:0pt;mso-ligatures:none;mso-ansi-language:&lt;br/&gt;     #2000;mso-fareast-language:#2000&quot;&gt;Метод &lt;/span&gt;&lt;/b&gt;&lt;b&gt;&lt;span style=&quot;font-size:10.0pt;font-family:&amp;quot;Courier New&amp;quot;;mso-fareast-font-family:&lt;br/&gt;     &amp;quot;Times New Roman&amp;quot;;mso-font-kerning:0pt;mso-ligatures:none;mso-ansi-language:&lt;br/&gt;     #2000;mso-fareast-language:#2000&quot;&gt;__str__&lt;/span&gt;&lt;/b&gt;&lt;span style=&quot;font-size:12.0pt;font-family:&amp;quot;Times New Roman&amp;quot;,serif;mso-fareast-font-family:&lt;br/&gt;     &amp;quot;Times New Roman&amp;quot;;mso-font-kerning:0pt;mso-ligatures:none;mso-ansi-language:&lt;br/&gt;     #2000;mso-fareast-language:#2000&quot;&gt;: Повертає строкове представлення&lt;br/&gt;     об&#39;єкта у вигляді &quot;слово: значення1, значення2,...&quot;.&lt;/span&gt;&lt;/li&gt;&lt;br/&gt; &lt;li style=&quot;mso-margin-top-alt:auto;mso-margin-bottom-alt:auto;&lt;br/&gt;     text-align:left;line-height:normal;mso-list:l5 level1 lfo1;tab-stops:list 36.0pt&quot; class=&quot;MsoNormal&quot;&gt;&lt;b&gt;&lt;span style=&quot;font-size:12.0pt;font-family:&amp;quot;Times New Roman&amp;quot;,serif;mso-fareast-font-family:&lt;br/&gt;     &amp;quot;Times New Roman&amp;quot;;mso-font-kerning:0pt;mso-ligatures:none;mso-ansi-language:&lt;br/&gt;     #2000;mso-fareast-language:#2000&quot;&gt;Метод &lt;/span&gt;&lt;/b&gt;&lt;b&gt;&lt;span style=&quot;font-size:10.0pt;font-family:&amp;quot;Courier New&amp;quot;;mso-fareast-font-family:&lt;br/&gt;     &amp;quot;Times New Roman&amp;quot;;mso-font-kerning:0pt;mso-ligatures:none;mso-ansi-language:&lt;br/&gt;     #2000;mso-fareast-language:#2000&quot;&gt;to_dict&lt;/span&gt;&lt;/b&gt;&lt;span style=&quot;font-size:12.0pt;font-family:&amp;quot;Times New Roman&amp;quot;,serif;mso-fareast-font-family:&lt;br/&gt;     &amp;quot;Times New Roman&amp;quot;;mso-font-kerning:0pt;mso-ligatures:none;mso-ansi-language:&lt;br/&gt;     #2000;mso-fareast-language:#2000&quot;&gt;: Перетворює об&#39;єкт на словник, де ключі&lt;br/&gt;     — це &quot;word&quot; і &quot;meanings&quot;.&lt;/span&gt;&lt;/li&gt;&lt;br/&gt; &lt;li style=&quot;mso-margin-top-alt:auto;mso-margin-bottom-alt:auto;&lt;br/&gt;     text-align:left;line-height:normal;mso-list:l5 level1 lfo1;tab-stops:list 36.0pt&quot; class=&quot;MsoNormal&quot;&gt;&lt;b&gt;&lt;span style=&quot;font-size:12.0pt;font-family:&amp;quot;Times New Roman&amp;quot;,serif;mso-fareast-font-family:&lt;br/&gt;     &amp;quot;Times New Roman&amp;quot;;mso-font-kerning:0pt;mso-ligatures:none;mso-ansi-language:&lt;br/&gt;     #2000;mso-fareast-language:#2000&quot;&gt;Статичний метод &lt;/span&gt;&lt;/b&gt;&lt;b&gt;&lt;span style=&quot;font-size:10.0pt;font-family:&amp;quot;Courier New&amp;quot;;mso-fareast-font-family:&lt;br/&gt;     &amp;quot;Times New Roman&amp;quot;;mso-font-kerning:0pt;mso-ligatures:none;mso-ansi-language:&lt;br/&gt;     #2000;mso-fareast-language:#2000&quot;&gt;from_dict&lt;/span&gt;&lt;/b&gt;&lt;span style=&quot;font-size:12.0pt;font-family:&amp;quot;Times New Roman&amp;quot;,serif;mso-fareast-font-family:&lt;br/&gt;     &amp;quot;Times New Roman&amp;quot;;mso-font-kerning:0pt;mso-ligatures:none;mso-ansi-language:&lt;br/&gt;     #2000;mso-fareast-language:#2000&quot;&gt;: Створює об&#39;єкт &lt;/span&gt;&lt;span style=&quot;font-size:10.0pt;font-family:&amp;quot;Courier New&amp;quot;;mso-fareast-font-family:&lt;br/&gt;     &amp;quot;Times New Roman&amp;quot;;mso-font-kerning:0pt;mso-ligatures:none;mso-ansi-language:&lt;br/&gt;     #2000;mso-fareast-language:#2000&quot;&gt;DictionaryEntry&lt;/span&gt;&lt;span style=&quot;font-size:12.0pt;font-family:&amp;quot;Times New Roman&amp;quot;,serif;mso-fareast-font-family:&lt;br/&gt;     &amp;quot;Times New Roman&amp;quot;;mso-font-kerning:0pt;mso-ligatures:none;mso-ansi-language:&lt;br/&gt;     #2000;mso-fareast-language:#2000&quot;&gt; з переданого словника.&lt;/span&gt;&lt;/li&gt;&lt;br/&gt;&lt;/ul&gt;&lt;p style=&quot;mso-margin-top-alt:auto;mso-margin-bottom-alt:&lt;br/&gt;auto;text-align:left;line-height:normal;mso-outline-level:3&quot; align=&quot;left&quot; class=&quot;MsoNormal&quot;&gt;&lt;b&gt;&lt;span style=&quot;font-size:13.5pt;font-family:&amp;quot;Times New Roman&amp;quot;,serif;mso-fareast-font-family:&lt;br/&gt;&amp;quot;Times New Roman&amp;quot;;mso-font-kerning:0pt;mso-ligatures:none;mso-ansi-language:&lt;br/&gt;#2000;mso-fareast-language:#2000&quot;&gt;Клас &lt;/span&gt;&lt;/b&gt;&lt;b&gt;&lt;span style=&quot;font-size:&lt;br/&gt;10.0pt;font-family:&amp;quot;Courier New&amp;quot;;mso-fareast-font-family:&amp;quot;Times New Roman&amp;quot;;&lt;br/&gt;mso-font-kerning:0pt;mso-ligatures:none;mso-ansi-language:#2000;mso-fareast-language:&lt;br/&gt;#2000&quot;&gt;Dictionary&lt;/span&gt;&lt;/b&gt;&lt;b&gt;&lt;span style=&quot;font-size:13.5pt;font-family:&amp;quot;Times New Roman&amp;quot;,serif;&lt;br/&gt;mso-fareast-font-family:&amp;quot;Times New Roman&amp;quot;;mso-font-kerning:0pt;mso-ligatures:&lt;br/&gt;none;mso-ansi-language:#2000;mso-fareast-language:#2000&quot;&gt;:&lt;/span&gt;&lt;/b&gt;&lt;/p&gt;&lt;ul type=&quot;disc&quot;&gt;&lt;br/&gt; &lt;li style=&quot;mso-margin-top-alt:auto;mso-margin-bottom-alt:auto;&lt;br/&gt;     text-align:left;line-height:normal;mso-list:l3 level1 lfo2;tab-stops:list 36.0pt&quot; class=&quot;MsoNormal&quot;&gt;&lt;b&gt;&lt;span style=&quot;font-size:12.0pt;font-family:&amp;quot;Times New Roman&amp;quot;,serif;mso-fareast-font-family:&lt;br/&gt;     &amp;quot;Times New Roman&amp;quot;;mso-font-kerning:0pt;mso-ligatures:none;mso-ansi-language:&lt;br/&gt;     #2000;mso-fareast-language:#2000&quot;&gt;Конструктор (&lt;/span&gt;&lt;/b&gt;&lt;b&gt;&lt;span style=&quot;font-size:10.0pt;font-family:&amp;quot;Courier New&amp;quot;;mso-fareast-font-family:&lt;br/&gt;     &amp;quot;Times New Roman&amp;quot;;mso-font-kerning:0pt;mso-ligatures:none;mso-ansi-language:&lt;br/&gt;     #2000;mso-fareast-language:#2000&quot;&gt;__init__&lt;/span&gt;&lt;/b&gt;&lt;b&gt;&lt;span style=&quot;font-size:12.0pt;font-family:&amp;quot;Times New Roman&amp;quot;,serif;mso-fareast-font-family:&lt;br/&gt;     &amp;quot;Times New Roman&amp;quot;;mso-font-kerning:0pt;mso-ligatures:none;mso-ansi-language:&lt;br/&gt;     #2000;mso-fareast-language:#2000&quot;&gt;)&lt;/span&gt;&lt;/b&gt;&lt;span style=&quot;font-size:12.0pt;&lt;br/&gt;     font-family:&amp;quot;Times New Roman&amp;quot;,serif;mso-fareast-font-family:&amp;quot;Times New Roman&amp;quot;;&lt;br/&gt;     mso-font-kerning:0pt;mso-ligatures:none;mso-ansi-language:#2000;&lt;br/&gt;     mso-fareast-language:#2000&quot;&gt;: Ініціалізує словник із зазначеним ім&#39;ям та&lt;br/&gt;     типом. Завантажує словник з файлу, якщо такий існує.&lt;/span&gt;&lt;/li&gt;&lt;br/&gt; &lt;li style=&quot;mso-margin-top-alt:auto;mso-margin-bottom-alt:auto;&lt;br/&gt;     text-align:left;line-height:normal;mso-list:l3 level1 lfo2;tab-stops:list 36.0pt&quot; class=&quot;MsoNormal&quot;&gt;&lt;b&gt;&lt;span style=&quot;font-size:12.0pt;font-family:&amp;quot;Times New Roman&amp;quot;,serif;mso-fareast-font-family:&lt;br/&gt;     &amp;quot;Times New Roman&amp;quot;;mso-font-kerning:0pt;mso-ligatures:none;mso-ansi-language:&lt;br/&gt;     #2000;mso-fareast-language:#2000&quot;&gt;Методи для встановлення/отримання імені&lt;br/&gt;     та типу&lt;/span&gt;&lt;/b&gt;&lt;span style=&quot;font-size:12.0pt;font-family:&amp;quot;Times New Roman&amp;quot;,serif;&lt;br/&gt;     mso-fareast-font-family:&amp;quot;Times New Roman&amp;quot;;mso-font-kerning:0pt;mso-ligatures:&lt;br/&gt;     none;mso-ansi-language:#2000;mso-fareast-language:#2000&quot;&gt;: Задають або&lt;br/&gt;     повертають ім&#39;я і тип словника.&lt;/span&gt;&lt;/li&gt;&lt;br/&gt; &lt;li style=&quot;mso-margin-top-alt:auto;mso-margin-bottom-alt:auto;&lt;br/&gt;     text-align:left;line-height:normal;mso-list:l3 level1 lfo2;tab-stops:list 36.0pt&quot; class=&quot;MsoNormal&quot;&gt;&lt;b&gt;&lt;span style=&quot;font-size:12.0pt;font-family:&amp;quot;Times New Roman&amp;quot;,serif;mso-fareast-font-family:&lt;br/&gt;     &amp;quot;Times New Roman&amp;quot;;mso-font-kerning:0pt;mso-ligatures:none;mso-ansi-language:&lt;br/&gt;     #2000;mso-fareast-language:#2000&quot;&gt;Метод &lt;/span&gt;&lt;/b&gt;&lt;b&gt;&lt;span style=&quot;font-size:10.0pt;font-family:&amp;quot;Courier New&amp;quot;;mso-fareast-font-family:&lt;br/&gt;     &amp;quot;Times New Roman&amp;quot;;mso-font-kerning:0pt;mso-ligatures:none;mso-ansi-language:&lt;br/&gt;     #2000;mso-fareast-language:#2000&quot;&gt;add_entry&lt;/span&gt;&lt;/b&gt;&lt;span style=&quot;font-size:12.0pt;font-family:&amp;quot;Times New Roman&amp;quot;,serif;mso-fareast-font-family:&lt;br/&gt;     &amp;quot;Times New Roman&amp;quot;;mso-font-kerning:0pt;mso-ligatures:none;mso-ansi-language:&lt;br/&gt;     #2000;mso-fareast-language:#2000&quot;&gt;: Додає нове слово з тлумаченнями або&lt;br/&gt;     оновлює значення для вже існуючого слова.&lt;/span&gt;&lt;/li&gt;&lt;br/&gt; &lt;li style=&quot;mso-margin-top-alt:auto;mso-margin-bottom-alt:auto;&lt;br/&gt;     text-align:left;line-height:normal;mso-list:l3 level1 lfo2;tab-stops:list 36.0pt&quot; class=&quot;MsoNormal&quot;&gt;&lt;b&gt;&lt;span style=&quot;font-size:12.0pt;font-family:&amp;quot;Times New Roman&amp;quot;,serif;mso-fareast-font-family:&lt;br/&gt;     &amp;quot;Times New Roman&amp;quot;;mso-font-kerning:0pt;mso-ligatures:none;mso-ansi-language:&lt;br/&gt;     #2000;mso-fareast-language:#2000&quot;&gt;Метод &lt;/span&gt;&lt;/b&gt;&lt;b&gt;&lt;span style=&quot;font-size:10.0pt;font-family:&amp;quot;Courier New&amp;quot;;mso-fareast-font-family:&lt;br/&gt;     &amp;quot;Times New Roman&amp;quot;;mso-font-kerning:0pt;mso-ligatures:none;mso-ansi-language:&lt;br/&gt;     #2000;mso-fareast-language:#2000&quot;&gt;edit_entry&lt;/span&gt;&lt;/b&gt;&lt;span style=&quot;font-size:12.0pt;font-family:&amp;quot;Times New Roman&amp;quot;,serif;mso-fareast-font-family:&lt;br/&gt;     &amp;quot;Times New Roman&amp;quot;;mso-font-kerning:0pt;mso-ligatures:none;mso-ansi-language:&lt;br/&gt;     #2000;mso-fareast-language:#2000&quot;&gt;: Оновлює значення слова, якщо воно є в&lt;br/&gt;     словнику.&lt;/span&gt;&lt;/li&gt;&lt;br/&gt; &lt;li style=&quot;mso-margin-top-alt:auto;mso-margin-bottom-alt:auto;&lt;br/&gt;     text-align:left;line-height:normal;mso-list:l3 level1 lfo2;tab-stops:list 36.0pt&quot; class=&quot;MsoNormal&quot;&gt;&lt;b&gt;&lt;span style=&quot;font-size:12.0pt;font-family:&amp;quot;Times New Roman&amp;quot;,serif;mso-fareast-font-family:&lt;br/&gt;     &amp;quot;Times New Roman&amp;quot;;mso-font-kerning:0pt;mso-ligatures:none;mso-ansi-language:&lt;br/&gt;     #2000;mso-fareast-language:#2000&quot;&gt;Метод &lt;/span&gt;&lt;/b&gt;&lt;b&gt;&lt;span style=&quot;font-size:10.0pt;font-family:&amp;quot;Courier New&amp;quot;;mso-fareast-font-family:&lt;br/&gt;     &amp;quot;Times New Roman&amp;quot;;mso-font-kerning:0pt;mso-ligatures:none;mso-ansi-language:&lt;br/&gt;     #2000;mso-fareast-language:#2000&quot;&gt;edit_word&lt;/span&gt;&lt;/b&gt;&lt;span style=&quot;font-size:12.0pt;font-family:&amp;quot;Times New Roman&amp;quot;,serif;mso-fareast-font-family:&lt;br/&gt;     &amp;quot;Times New Roman&amp;quot;;mso-font-kerning:0pt;mso-ligatures:none;mso-ansi-language:&lt;br/&gt;     #2000;mso-fareast-language:#2000&quot;&gt;: Змінює слово на нове, зберігаючи його&lt;br/&gt;     значення.&lt;/span&gt;&lt;/li&gt;&lt;br/&gt; &lt;li style=&quot;mso-margin-top-alt:auto;mso-margin-bottom-alt:auto;&lt;br/&gt;     text-align:left;line-height:normal;mso-list:l3 level1 lfo2;tab-stops:list 36.0pt&quot; class=&quot;MsoNormal&quot;&gt;&lt;b&gt;&lt;span style=&quot;font-size:12.0pt;font-family:&amp;quot;Times New Roman&amp;quot;,serif;mso-fareast-font-family:&lt;br/&gt;     &amp;quot;Times New Roman&amp;quot;;mso-font-kerning:0pt;mso-ligatures:none;mso-ansi-language:&lt;br/&gt;     #2000;mso-fareast-language:#2000&quot;&gt;Метод &lt;/span&gt;&lt;/b&gt;&lt;b&gt;&lt;span style=&quot;font-size:10.0pt;font-family:&amp;quot;Courier New&amp;quot;;mso-fareast-font-family:&lt;br/&gt;     &amp;quot;Times New Roman&amp;quot;;mso-font-kerning:0pt;mso-ligatures:none;mso-ansi-language:&lt;br/&gt;     #2000;mso-fareast-language:#2000&quot;&gt;delete_entry&lt;/span&gt;&lt;/b&gt;&lt;span style=&quot;font-size:12.0pt;font-family:&amp;quot;Times New Roman&amp;quot;,serif;mso-fareast-font-family:&lt;br/&gt;     &amp;quot;Times New Roman&amp;quot;;mso-font-kerning:0pt;mso-ligatures:none;mso-ansi-language:&lt;br/&gt;     #2000;mso-fareast-language:#2000&quot;&gt;: Видаляє слово з його значеннями.&lt;/span&gt;&lt;/li&gt;&lt;br/&gt; &lt;li style=&quot;mso-margin-top-alt:auto;mso-margin-bottom-alt:auto;&lt;br/&gt;     text-align:left;line-height:normal;mso-list:l3 level1 lfo2;tab-stops:list 36.0pt&quot; class=&quot;MsoNormal&quot;&gt;&lt;b&gt;&lt;span style=&quot;font-size:12.0pt;font-family:&amp;quot;Times New Roman&amp;quot;,serif;mso-fareast-font-family:&lt;br/&gt;     &amp;quot;Times New Roman&amp;quot;;mso-font-kerning:0pt;mso-ligatures:none;mso-ansi-language:&lt;br/&gt;     #2000;mso-fareast-language:#2000&quot;&gt;Метод &lt;/span&gt;&lt;/b&gt;&lt;b&gt;&lt;span style=&quot;font-size:10.0pt;font-family:&amp;quot;Courier New&amp;quot;;mso-fareast-font-family:&lt;br/&gt;     &amp;quot;Times New Roman&amp;quot;;mso-font-kerning:0pt;mso-ligatures:none;mso-ansi-language:&lt;br/&gt;     #2000;mso-fareast-language:#2000&quot;&gt;delete_meaning&lt;/span&gt;&lt;/b&gt;&lt;span style=&quot;font-size:12.0pt;font-family:&amp;quot;Times New Roman&amp;quot;,serif;mso-fareast-font-family:&lt;br/&gt;     &amp;quot;Times New Roman&amp;quot;;mso-font-kerning:0pt;mso-ligatures:none;mso-ansi-language:&lt;br/&gt;     #2000;mso-fareast-language:#2000&quot;&gt;: Видаляє конкретне тлумачення для&lt;br/&gt;     слова.&lt;/span&gt;&lt;/li&gt;&lt;br/&gt; &lt;li style=&quot;mso-margin-top-alt:auto;mso-margin-bottom-alt:auto;&lt;br/&gt;     text-align:left;line-height:normal;mso-list:l3 level1 lfo2;tab-stops:list 36.0pt&quot; class=&quot;MsoNormal&quot;&gt;&lt;b&gt;&lt;span style=&quot;font-size:12.0pt;font-family:&amp;quot;Times New Roman&amp;quot;,serif;mso-fareast-font-family:&lt;br/&gt;     &amp;quot;Times New Roman&amp;quot;;mso-font-kerning:0pt;mso-ligatures:none;mso-ansi-language:&lt;br/&gt;     #2000;mso-fareast-language:#2000&quot;&gt;Метод &lt;/span&gt;&lt;/b&gt;&lt;b&gt;&lt;span style=&quot;font-size:10.0pt;font-family:&amp;quot;Courier New&amp;quot;;mso-fareast-font-family:&lt;br/&gt;     &amp;quot;Times New Roman&amp;quot;;mso-font-kerning:0pt;mso-ligatures:none;mso-ansi-language:&lt;br/&gt;     #2000;mso-fareast-language:#2000&quot;&gt;search_entry&lt;/span&gt;&lt;/b&gt;&lt;span style=&quot;font-size:12.0pt;font-family:&amp;quot;Times New Roman&amp;quot;,serif;mso-fareast-font-family:&lt;br/&gt;     &amp;quot;Times New Roman&amp;quot;;mso-font-kerning:0pt;mso-ligatures:none;mso-ansi-language:&lt;br/&gt;     #2000;mso-fareast-language:#2000&quot;&gt;: Шукає слово в словнику і повертає його&lt;br/&gt;     значення.&lt;/span&gt;&lt;/li&gt;&lt;br/&gt; &lt;li style=&quot;mso-margin-top-alt:auto;mso-margin-bottom-alt:auto;&lt;br/&gt;     text-align:left;line-height:normal;mso-list:l3 level1 lfo2;tab-stops:list 36.0pt&quot; class=&quot;MsoNormal&quot;&gt;&lt;b&gt;&lt;span style=&quot;font-size:12.0pt;font-family:&amp;quot;Times New Roman&amp;quot;,serif;mso-fareast-font-family:&lt;br/&gt;     &amp;quot;Times New Roman&amp;quot;;mso-font-kerning:0pt;mso-ligatures:none;mso-ansi-language:&lt;br/&gt;     #2000;mso-fareast-language:#2000&quot;&gt;Методи для збереження і завантаження з&lt;br/&gt;     файлу&lt;/span&gt;&lt;/b&gt;&lt;span style=&quot;font-size:12.0pt;font-family:&amp;quot;Times New Roman&amp;quot;,serif;&lt;br/&gt;     mso-fareast-font-family:&amp;quot;Times New Roman&amp;quot;;mso-font-kerning:0pt;mso-ligatures:&lt;br/&gt;     none;mso-ansi-language:#2000;mso-fareast-language:#2000&quot;&gt;: Зберігають&lt;br/&gt;     словник у файл та завантажують його з файлу.&lt;/span&gt;&lt;/li&gt;&lt;br/&gt; &lt;li style=&quot;mso-margin-top-alt:auto;mso-margin-bottom-alt:auto;&lt;br/&gt;     text-align:left;line-height:normal;mso-list:l3 level1 lfo2;tab-stops:list 36.0pt&quot; class=&quot;MsoNormal&quot;&gt;&lt;b&gt;&lt;span style=&quot;font-size:12.0pt;font-family:&amp;quot;Times New Roman&amp;quot;,serif;mso-fareast-font-family:&lt;br/&gt;     &amp;quot;Times New Roman&amp;quot;;mso-font-kerning:0pt;mso-ligatures:none;mso-ansi-language:&lt;br/&gt;     #2000;mso-fareast-language:#2000&quot;&gt;Метод &lt;/span&gt;&lt;/b&gt;&lt;b&gt;&lt;span style=&quot;font-size:10.0pt;font-family:&amp;quot;Courier New&amp;quot;;mso-fareast-font-family:&lt;br/&gt;     &amp;quot;Times New Roman&amp;quot;;mso-font-kerning:0pt;mso-ligatures:none;mso-ansi-language:&lt;br/&gt;     #2000;mso-fareast-language:#2000&quot;&gt;export_word_to_file&lt;/span&gt;&lt;/b&gt;&lt;span style=&quot;font-size:12.0pt;font-family:&amp;quot;Times New Roman&amp;quot;,serif;mso-fareast-font-family:&lt;br/&gt;     &amp;quot;Times New Roman&amp;quot;;mso-font-kerning:0pt;mso-ligatures:none;mso-ansi-language:&lt;br/&gt;     #2000;mso-fareast-language:#2000&quot;&gt;: Експортує слово та його значення в&lt;br/&gt;     окремий файл.&lt;/span&gt;&lt;/li&gt;&lt;br/&gt;&lt;/ul&gt;&lt;p style=&quot;mso-margin-top-alt:auto;mso-margin-bottom-alt:&lt;br/&gt;auto;text-align:left;line-height:normal;mso-outline-level:3&quot; align=&quot;left&quot; class=&quot;MsoNormal&quot;&gt;&lt;b&gt;&lt;span style=&quot;font-size:13.5pt;font-family:&amp;quot;Times New Roman&amp;quot;,serif;mso-fareast-font-family:&lt;br/&gt;&amp;quot;Times New Roman&amp;quot;;mso-font-kerning:0pt;mso-ligatures:none;mso-ansi-language:&lt;br/&gt;#2000;mso-fareast-language:#2000&quot;&gt;Клас &lt;/span&gt;&lt;/b&gt;&lt;b&gt;&lt;span style=&quot;font-size:&lt;br/&gt;10.0pt;font-family:&amp;quot;Courier New&amp;quot;;mso-fareast-font-family:&amp;quot;Times New Roman&amp;quot;;&lt;br/&gt;mso-font-kerning:0pt;mso-ligatures:none;mso-ansi-language:#2000;mso-fareast-language:&lt;br/&gt;#2000&quot;&gt;DictionaryManager&lt;/span&gt;&lt;/b&gt;&lt;b&gt;&lt;span style=&quot;font-size:13.5pt;font-family:&lt;br/&gt;&amp;quot;Times New Roman&amp;quot;,serif;mso-fareast-font-family:&amp;quot;Times New Roman&amp;quot;;mso-font-kerning:&lt;br/&gt;0pt;mso-ligatures:none;mso-ansi-language:#2000;mso-fareast-language:#2000&quot;&gt;:&lt;/span&gt;&lt;/b&gt;&lt;/p&gt;&lt;ul type=&quot;disc&quot;&gt;&lt;br/&gt; &lt;li style=&quot;mso-margin-top-alt:auto;mso-margin-bottom-alt:auto;&lt;br/&gt;     text-align:left;line-height:normal;mso-list:l1 level1 lfo3;tab-stops:list 36.0pt&quot; class=&quot;MsoNormal&quot;&gt;&lt;b&gt;&lt;span style=&quot;font-size:12.0pt;font-family:&amp;quot;Times New Roman&amp;quot;,serif;mso-fareast-font-family:&lt;br/&gt;     &amp;quot;Times New Roman&amp;quot;;mso-font-kerning:0pt;mso-ligatures:none;mso-ansi-language:&lt;br/&gt;     #2000;mso-fareast-language:#2000&quot;&gt;Конструктор (&lt;/span&gt;&lt;/b&gt;&lt;b&gt;&lt;span style=&quot;font-size:10.0pt;font-family:&amp;quot;Courier New&amp;quot;;mso-fareast-font-family:&lt;br/&gt;     &amp;quot;Times New Roman&amp;quot;;mso-font-kerning:0pt;mso-ligatures:none;mso-ansi-language:&lt;br/&gt;     #2000;mso-fareast-language:#2000&quot;&gt;__init__&lt;/span&gt;&lt;/b&gt;&lt;b&gt;&lt;span style=&quot;font-size:12.0pt;font-family:&amp;quot;Times New Roman&amp;quot;,serif;mso-fareast-font-family:&lt;br/&gt;     &amp;quot;Times New Roman&amp;quot;;mso-font-kerning:0pt;mso-ligatures:none;mso-ansi-language:&lt;br/&gt;     #2000;mso-fareast-language:#2000&quot;&gt;)&lt;/span&gt;&lt;/b&gt;&lt;span style=&quot;font-size:12.0pt;&lt;br/&gt;     font-family:&amp;quot;Times New Roman&amp;quot;,serif;mso-fareast-font-family:&amp;quot;Times New Roman&amp;quot;;&lt;br/&gt;     mso-font-kerning:0pt;mso-ligatures:none;mso-ansi-language:#2000;&lt;br/&gt;     mso-fareast-language:#2000&quot;&gt;: Ініціалізує порожній словник для зберігання&lt;br/&gt;     об&#39;єктів класу &lt;/span&gt;&lt;span style=&quot;font-size:10.0pt;font-family:&amp;quot;Courier New&amp;quot;;&lt;br/&gt;     mso-fareast-font-family:&amp;quot;Times New Roman&amp;quot;;mso-font-kerning:0pt;mso-ligatures:&lt;br/&gt;     none;mso-ansi-language:#2000;mso-fareast-language:#2000&quot;&gt;Dictionary&lt;/span&gt;&lt;span style=&quot;font-size:12.0pt;font-family:&amp;quot;Times New Roman&amp;quot;,serif;mso-fareast-font-family:&lt;br/&gt;     &amp;quot;Times New Roman&amp;quot;;mso-font-kerning:0pt;mso-ligatures:none;mso-ansi-language:&lt;br/&gt;     #2000;mso-fareast-language:#2000&quot;&gt;.&lt;/span&gt;&lt;/li&gt;&lt;br/&gt; &lt;li style=&quot;mso-margin-top-alt:auto;mso-margin-bottom-alt:auto;&lt;br/&gt;     text-align:left;line-height:normal;mso-list:l1 level1 lfo3;tab-stops:list 36.0pt&quot; class=&quot;MsoNormal&quot;&gt;&lt;b&gt;&lt;span style=&quot;font-size:12.0pt;font-family:&amp;quot;Times New Roman&amp;quot;,serif;mso-fareast-font-family:&lt;br/&gt;     &amp;quot;Times New Roman&amp;quot;;mso-font-kerning:0pt;mso-ligatures:none;mso-ansi-language:&lt;br/&gt;     #2000;mso-fareast-language:#2000&quot;&gt;Метод &lt;/span&gt;&lt;/b&gt;&lt;b&gt;&lt;span style=&quot;font-size:10.0pt;font-family:&amp;quot;Courier New&amp;quot;;mso-fareast-font-family:&lt;br/&gt;     &amp;quot;Times New Roman&amp;quot;;mso-font-kerning:0pt;mso-ligatures:none;mso-ansi-language:&lt;br/&gt;     #2000;mso-fareast-language:#2000&quot;&gt;create_dictionary&lt;/span&gt;&lt;/b&gt;&lt;span style=&quot;font-size:12.0pt;font-family:&amp;quot;Times New Roman&amp;quot;,serif;mso-fareast-font-family:&lt;br/&gt;     &amp;quot;Times New Roman&amp;quot;;mso-font-kerning:0pt;mso-ligatures:none;mso-ansi-language:&lt;br/&gt;     #2000;mso-fareast-language:#2000&quot;&gt;: Створює новий словник, якщо його ще не&lt;br/&gt;     існує.&lt;/span&gt;&lt;/li&gt;&lt;br/&gt; &lt;li style=&quot;mso-margin-top-alt:auto;mso-margin-bottom-alt:auto;&lt;br/&gt;     text-align:left;line-height:normal;mso-list:l1 level1 lfo3;tab-stops:list 36.0pt&quot; class=&quot;MsoNormal&quot;&gt;&lt;b&gt;&lt;span style=&quot;font-size:12.0pt;font-family:&amp;quot;Times New Roman&amp;quot;,serif;mso-fareast-font-family:&lt;br/&gt;     &amp;quot;Times New Roman&amp;quot;;mso-font-kerning:0pt;mso-ligatures:none;mso-ansi-language:&lt;br/&gt;     #2000;mso-fareast-language:#2000&quot;&gt;Метод &lt;/span&gt;&lt;/b&gt;&lt;b&gt;&lt;span style=&quot;font-size:10.0pt;font-family:&amp;quot;Courier New&amp;quot;;mso-fareast-font-family:&lt;br/&gt;     &amp;quot;Times New Roman&amp;quot;;mso-font-kerning:0pt;mso-ligatures:none;mso-ansi-language:&lt;br/&gt;     #2000;mso-fareast-language:#2000&quot;&gt;select_dictionary&lt;/span&gt;&lt;/b&gt;&lt;span style=&quot;font-size:12.0pt;font-family:&amp;quot;Times New Roman&amp;quot;,serif;mso-fareast-font-family:&lt;br/&gt;     &amp;quot;Times New Roman&amp;quot;;mso-font-kerning:0pt;mso-ligatures:none;mso-ansi-language:&lt;br/&gt;     #2000;mso-fareast-language:#2000&quot;&gt;: Вибирає словник з пам&#39;яті або&lt;br/&gt;     завантажує його з файлу.&lt;/span&gt;&lt;/li&gt;&lt;br/&gt; &lt;li style=&quot;mso-margin-top-alt:auto;mso-margin-bottom-alt:auto;&lt;br/&gt;     text-align:left;line-height:normal;mso-list:l1 level1 lfo3;tab-stops:list 36.0pt&quot; class=&quot;MsoNormal&quot;&gt;&lt;b&gt;&lt;span style=&quot;font-size:12.0pt;font-family:&amp;quot;Times New Roman&amp;quot;,serif;mso-fareast-font-family:&lt;br/&gt;     &amp;quot;Times New Roman&amp;quot;;mso-font-kerning:0pt;mso-ligatures:none;mso-ansi-language:&lt;br/&gt;     #2000;mso-fareast-language:#2000&quot;&gt;Метод &lt;/span&gt;&lt;/b&gt;&lt;b&gt;&lt;span style=&quot;font-size:10.0pt;font-family:&amp;quot;Courier New&amp;quot;;mso-fareast-font-family:&lt;br/&gt;     &amp;quot;Times New Roman&amp;quot;;mso-font-kerning:0pt;mso-ligatures:none;mso-ansi-language:&lt;br/&gt;     #2000;mso-fareast-language:#2000&quot;&gt;get_current_dictionary&lt;/span&gt;&lt;/b&gt;&lt;span style=&quot;font-size:12.0pt;font-family:&amp;quot;Times New Roman&amp;quot;,serif;mso-fareast-font-family:&lt;br/&gt;     &amp;quot;Times New Roman&amp;quot;;mso-font-kerning:0pt;mso-ligatures:none;mso-ansi-language:&lt;br/&gt;     #2000;mso-fareast-language:#2000&quot;&gt;: Повертає поточний вибраний словник.&lt;/span&gt;&lt;/li&gt;&lt;br/&gt; &lt;li style=&quot;mso-margin-top-alt:auto;mso-margin-bottom-alt:auto;&lt;br/&gt;     text-align:left;line-height:normal;mso-list:l1 level1 lfo3;tab-stops:list 36.0pt&quot; class=&quot;MsoNormal&quot;&gt;&lt;b&gt;&lt;span style=&quot;font-size:12.0pt;font-family:&amp;quot;Times New Roman&amp;quot;,serif;mso-fareast-font-family:&lt;br/&gt;     &amp;quot;Times New Roman&amp;quot;;mso-font-kerning:0pt;mso-ligatures:none;mso-ansi-language:&lt;br/&gt;     #2000;mso-fareast-language:#2000&quot;&gt;Метод &lt;/span&gt;&lt;/b&gt;&lt;b&gt;&lt;span style=&quot;font-size:10.0pt;font-family:&amp;quot;Courier New&amp;quot;;mso-fareast-font-family:&lt;br/&gt;     &amp;quot;Times New Roman&amp;quot;;mso-font-kerning:0pt;mso-ligatures:none;mso-ansi-language:&lt;br/&gt;     #2000;mso-fareast-language:#2000&quot;&gt;delete_dictionary&lt;/span&gt;&lt;/b&gt;&lt;span style=&quot;font-size:12.0pt;font-family:&amp;quot;Times New Roman&amp;quot;,serif;mso-fareast-font-family:&lt;br/&gt;     &amp;quot;Times New Roman&amp;quot;;mso-font-kerning:0pt;mso-ligatures:none;mso-ansi-language:&lt;br/&gt;     #2000;mso-fareast-language:#2000&quot;&gt;: Видаляє словник із пам&#39;яті та&lt;br/&gt;     відповідний файл.&lt;/span&gt;&lt;/li&gt;&lt;br/&gt; &lt;li style=&quot;mso-margin-top-alt:auto;mso-margin-bottom-alt:auto;&lt;br/&gt;     text-align:left;line-height:normal;mso-list:l1 level1 lfo3;tab-stops:list 36.0pt&quot; class=&quot;MsoNormal&quot;&gt;&lt;b&gt;&lt;span style=&quot;font-size:12.0pt;font-family:&amp;quot;Times New Roman&amp;quot;,serif;mso-fareast-font-family:&lt;br/&gt;     &amp;quot;Times New Roman&amp;quot;;mso-font-kerning:0pt;mso-ligatures:none;mso-ansi-language:&lt;br/&gt;     #2000;mso-fareast-language:#2000&quot;&gt;Метод &lt;/span&gt;&lt;/b&gt;&lt;b&gt;&lt;span style=&quot;font-size:10.0pt;font-family:&amp;quot;Courier New&amp;quot;;mso-fareast-font-family:&lt;br/&gt;     &amp;quot;Times New Roman&amp;quot;;mso-font-kerning:0pt;mso-ligatures:none;mso-ansi-language:&lt;br/&gt;     #2000;mso-fareast-language:#2000&quot;&gt;list_dictionaries&lt;/span&gt;&lt;/b&gt;&lt;span style=&quot;font-size:12.0pt;font-family:&amp;quot;Times New Roman&amp;quot;,serif;mso-fareast-font-family:&lt;br/&gt;     &amp;quot;Times New Roman&amp;quot;;mso-font-kerning:0pt;mso-ligatures:none;mso-ansi-language:&lt;br/&gt;     #2000;mso-fareast-language:#2000&quot;&gt;: Повертає список всіх словників,&lt;br/&gt;     доступних у пам&#39;яті та на диску.&lt;/span&gt;&lt;/li&gt;&lt;br/&gt;&lt;/ul&gt;&lt;p style=&quot;mso-margin-top-alt:auto;mso-margin-bottom-alt:&lt;br/&gt;auto;text-align:left;line-height:normal;mso-outline-level:3&quot; align=&quot;left&quot; class=&quot;MsoNormal&quot;&gt;&lt;b&gt;&lt;span style=&quot;font-size:13.5pt;font-family:&amp;quot;Times New Roman&amp;quot;,serif;mso-fareast-font-family:&lt;br/&gt;&amp;quot;Times New Roman&amp;quot;;mso-font-kerning:0pt;mso-ligatures:none;mso-ansi-language:&lt;br/&gt;#2000;mso-fareast-language:#2000&quot;&gt;Клас &lt;/span&gt;&lt;/b&gt;&lt;b&gt;&lt;span style=&quot;font-size:&lt;br/&gt;10.0pt;font-family:&amp;quot;Courier New&amp;quot;;mso-fareast-font-family:&amp;quot;Times New Roman&amp;quot;;&lt;br/&gt;mso-font-kerning:0pt;mso-ligatures:none;mso-ansi-language:#2000;mso-fareast-language:&lt;br/&gt;#2000&quot;&gt;MenuOption&lt;/span&gt;&lt;/b&gt;&lt;b&gt;&lt;span style=&quot;font-size:13.5pt;font-family:&amp;quot;Times New Roman&amp;quot;,serif;&lt;br/&gt;mso-fareast-font-family:&amp;quot;Times New Roman&amp;quot;;mso-font-kerning:0pt;mso-ligatures:&lt;br/&gt;none;mso-ansi-language:#2000;mso-fareast-language:#2000&quot;&gt;:&lt;/span&gt;&lt;/b&gt;&lt;/p&gt;&lt;ul type=&quot;disc&quot;&gt;&lt;br/&gt; &lt;li style=&quot;mso-margin-top-alt:auto;mso-margin-bottom-alt:auto;&lt;br/&gt;     text-align:left;line-height:normal;mso-list:l4 level1 lfo4;tab-stops:list 36.0pt&quot; class=&quot;MsoNormal&quot;&gt;&lt;b&gt;&lt;span style=&quot;font-size:12.0pt;font-family:&amp;quot;Times New Roman&amp;quot;,serif;mso-fareast-font-family:&lt;br/&gt;     &amp;quot;Times New Roman&amp;quot;;mso-font-kerning:0pt;mso-ligatures:none;mso-ansi-language:&lt;br/&gt;     #2000;mso-fareast-language:#2000&quot;&gt;Конструктор (&lt;/span&gt;&lt;/b&gt;&lt;b&gt;&lt;span style=&quot;font-size:10.0pt;font-family:&amp;quot;Courier New&amp;quot;;mso-fareast-font-family:&lt;br/&gt;     &amp;quot;Times New Roman&amp;quot;;mso-font-kerning:0pt;mso-ligatures:none;mso-ansi-language:&lt;br/&gt;     #2000;mso-fareast-language:#2000&quot;&gt;__init__&lt;/span&gt;&lt;/b&gt;&lt;b&gt;&lt;span style=&quot;font-size:12.0pt;font-family:&amp;quot;Times New Roman&amp;quot;,serif;mso-fareast-font-family:&lt;br/&gt;     &amp;quot;Times New Roman&amp;quot;;mso-font-kerning:0pt;mso-ligatures:none;mso-ansi-language:&lt;br/&gt;     #2000;mso-fareast-language:#2000&quot;&gt;)&lt;/span&gt;&lt;/b&gt;&lt;span style=&quot;font-size:12.0pt;&lt;br/&gt;     font-family:&amp;quot;Times New Roman&amp;quot;,serif;mso-fareast-font-family:&amp;quot;Times New Roman&amp;quot;;&lt;br/&gt;     mso-font-kerning:0pt;mso-ligatures:none;mso-ansi-language:#2000;&lt;br/&gt;     mso-fareast-language:#2000&quot;&gt;: Ініціалізує опцію меню з іменем та&lt;br/&gt;     асоційованою дією (функцією).&lt;/span&gt;&lt;/li&gt;&lt;br/&gt;&lt;/ul&gt;&lt;p style=&quot;mso-margin-top-alt:auto;mso-margin-bottom-alt:&lt;br/&gt;auto;text-align:left;line-height:normal;mso-outline-level:3&quot; align=&quot;left&quot; class=&quot;MsoNormal&quot;&gt;&lt;b&gt;&lt;span style=&quot;font-size:13.5pt;font-family:&amp;quot;Times New Roman&amp;quot;,serif;mso-fareast-font-family:&lt;br/&gt;&amp;quot;Times New Roman&amp;quot;;mso-font-kerning:0pt;mso-ligatures:none;mso-ansi-language:&lt;br/&gt;#2000;mso-fareast-language:#2000&quot;&gt;Клас &lt;/span&gt;&lt;/b&gt;&lt;b&gt;&lt;span style=&quot;font-size:&lt;br/&gt;10.0pt;font-family:&amp;quot;Courier New&amp;quot;;mso-fareast-font-family:&amp;quot;Times New Roman&amp;quot;;&lt;br/&gt;mso-font-kerning:0pt;mso-ligatures:none;mso-ansi-language:#2000;mso-fareast-language:&lt;br/&gt;#2000&quot;&gt;Menu&lt;/span&gt;&lt;/b&gt;&lt;b&gt;&lt;span style=&quot;font-size:13.5pt;font-family:&amp;quot;Times New Roman&amp;quot;,serif;&lt;br/&gt;mso-fareast-font-family:&amp;quot;Times New Roman&amp;quot;;mso-font-kerning:0pt;mso-ligatures:&lt;br/&gt;none;mso-ansi-language:#2000;mso-fareast-language:#2000&quot;&gt;:&lt;/span&gt;&lt;/b&gt;&lt;/p&gt;&lt;ul type=&quot;disc&quot;&gt;&lt;br/&gt; &lt;li style=&quot;mso-margin-top-alt:auto;mso-margin-bottom-alt:auto;&lt;br/&gt;     text-align:left;line-height:normal;mso-list:l2 level1 lfo5;tab-stops:list 36.0pt&quot; class=&quot;MsoNormal&quot;&gt;&lt;b&gt;&lt;span style=&quot;font-size:12.0pt;font-family:&amp;quot;Times New Roman&amp;quot;,serif;mso-fareast-font-family:&lt;br/&gt;     &amp;quot;Times New Roman&amp;quot;;mso-font-kerning:0pt;mso-ligatures:none;mso-ansi-language:&lt;br/&gt;     #2000;mso-fareast-language:#2000&quot;&gt;Конструктор (&lt;/span&gt;&lt;/b&gt;&lt;b&gt;&lt;span style=&quot;font-size:10.0pt;font-family:&amp;quot;Courier New&amp;quot;;mso-fareast-font-family:&lt;br/&gt;     &amp;quot;Times New Roman&amp;quot;;mso-font-kerning:0pt;mso-ligatures:none;mso-ansi-language:&lt;br/&gt;     #2000;mso-fareast-language:#2000&quot;&gt;__init__&lt;/span&gt;&lt;/b&gt;&lt;b&gt;&lt;span style=&quot;font-size:12.0pt;font-family:&amp;quot;Times New Roman&amp;quot;,serif;mso-fareast-font-family:&lt;br/&gt;     &amp;quot;Times New Roman&amp;quot;;mso-font-kerning:0pt;mso-ligatures:none;mso-ansi-language:&lt;br/&gt;     #2000;mso-fareast-language:#2000&quot;&gt;)&lt;/span&gt;&lt;/b&gt;&lt;span style=&quot;font-size:12.0pt;&lt;br/&gt;     font-family:&amp;quot;Times New Roman&amp;quot;,serif;mso-fareast-font-family:&amp;quot;Times New Roman&amp;quot;;&lt;br/&gt;     mso-font-kerning:0pt;mso-ligatures:none;mso-ansi-language:#2000;&lt;br/&gt;     mso-fareast-language:#2000&quot;&gt;: Ініціалізує список опцій меню.&lt;/span&gt;&lt;/li&gt;&lt;br/&gt; &lt;li style=&quot;mso-margin-top-alt:auto;mso-margin-bottom-alt:auto;&lt;br/&gt;     text-align:left;line-height:normal;mso-list:l2 level1 lfo5;tab-stops:list 36.0pt&quot; class=&quot;MsoNormal&quot;&gt;&lt;b&gt;&lt;span style=&quot;font-size:12.0pt;font-family:&amp;quot;Times New Roman&amp;quot;,serif;mso-fareast-font-family:&lt;br/&gt;     &amp;quot;Times New Roman&amp;quot;;mso-font-kerning:0pt;mso-ligatures:none;mso-ansi-language:&lt;br/&gt;     #2000;mso-fareast-language:#2000&quot;&gt;Метод &lt;/span&gt;&lt;/b&gt;&lt;b&gt;&lt;span style=&quot;font-size:10.0pt;font-family:&amp;quot;Courier New&amp;quot;;mso-fareast-font-family:&lt;br/&gt;     &amp;quot;Times New Roman&amp;quot;;mso-font-kerning:0pt;mso-ligatures:none;mso-ansi-language:&lt;br/&gt;     #2000;mso-fareast-language:#2000&quot;&gt;add_option&lt;/span&gt;&lt;/b&gt;&lt;span style=&quot;font-size:12.0pt;font-family:&amp;quot;Times New Roman&amp;quot;,serif;mso-fareast-font-family:&lt;br/&gt;     &amp;quot;Times New Roman&amp;quot;;mso-font-kerning:0pt;mso-ligatures:none;mso-ansi-language:&lt;br/&gt;     #2000;mso-fareast-language:#2000&quot;&gt;: Додає опцію в меню.&lt;/span&gt;&lt;/li&gt;&lt;br/&gt; &lt;li style=&quot;mso-margin-top-alt:auto;mso-margin-bottom-alt:auto;&lt;br/&gt;     text-align:left;line-height:normal;mso-list:l2 level1 lfo5;tab-stops:list 36.0pt&quot; class=&quot;MsoNormal&quot;&gt;&lt;b&gt;&lt;span style=&quot;font-size:12.0pt;font-family:&amp;quot;Times New Roman&amp;quot;,serif;mso-fareast-font-family:&lt;br/&gt;     &amp;quot;Times New Roman&amp;quot;;mso-font-kerning:0pt;mso-ligatures:none;mso-ansi-language:&lt;br/&gt;     #2000;mso-fareast-language:#2000&quot;&gt;Метод &lt;/span&gt;&lt;/b&gt;&lt;b&gt;&lt;span style=&quot;font-size:10.0pt;font-family:&amp;quot;Courier New&amp;quot;;mso-fareast-font-family:&lt;br/&gt;     &amp;quot;Times New Roman&amp;quot;;mso-font-kerning:0pt;mso-ligatures:none;mso-ansi-language:&lt;br/&gt;     #2000;mso-fareast-language:#2000&quot;&gt;show_submenu&lt;/span&gt;&lt;/b&gt;&lt;span style=&quot;font-size:12.0pt;font-family:&amp;quot;Times New Roman&amp;quot;,serif;mso-fareast-font-family:&lt;br/&gt;     &amp;quot;Times New Roman&amp;quot;;mso-font-kerning:0pt;mso-ligatures:none;mso-ansi-language:&lt;br/&gt;     #2000;mso-fareast-language:#2000&quot;&gt;: Відображає підменю з доступними&lt;br/&gt;     опціями та дозволяє вибір.&lt;/span&gt;&lt;/li&gt;&lt;br/&gt; &lt;li style=&quot;mso-margin-top-alt:auto;mso-margin-bottom-alt:auto;&lt;br/&gt;     text-align:left;line-height:normal;mso-list:l2 level1 lfo5;tab-stops:list 36.0pt&quot; class=&quot;MsoNormal&quot;&gt;&lt;b&gt;&lt;span style=&quot;font-size:12.0pt;font-family:&amp;quot;Times New Roman&amp;quot;,serif;mso-fareast-font-family:&lt;br/&gt;     &amp;quot;Times New Roman&amp;quot;;mso-font-kerning:0pt;mso-ligatures:none;mso-ansi-language:&lt;br/&gt;     #2000;mso-fareast-language:#2000&quot;&gt;Метод &lt;/span&gt;&lt;/b&gt;&lt;b&gt;&lt;span style=&quot;font-size:10.0pt;font-family:&amp;quot;Courier New&amp;quot;;mso-fareast-font-family:&lt;br/&gt;     &amp;quot;Times New Roman&amp;quot;;mso-font-kerning:0pt;mso-ligatures:none;mso-ansi-language:&lt;br/&gt;     #2000;mso-fareast-language:#2000&quot;&gt;show_menu&lt;/span&gt;&lt;/b&gt;&lt;span style=&quot;font-size:12.0pt;font-family:&amp;quot;Times New Roman&amp;quot;,serif;mso-fareast-font-family:&lt;br/&gt;     &amp;quot;Times New Roman&amp;quot;;mso-font-kerning:0pt;mso-ligatures:none;mso-ansi-language:&lt;br/&gt;     #2000;mso-fareast-language:#2000&quot;&gt;: Відображає основне меню з варіантами&lt;br/&gt;     управління словниками і словником.&lt;/span&gt;&lt;/li&gt;&lt;br/&gt; &lt;li style=&quot;mso-margin-top-alt:auto;mso-margin-bottom-alt:auto;&lt;br/&gt;     text-align:left;line-height:normal;mso-list:l2 level1 lfo5;tab-stops:list 36.0pt&quot; class=&quot;MsoNormal&quot;&gt;&lt;b&gt;&lt;span style=&quot;font-size:12.0pt;font-family:&amp;quot;Times New Roman&amp;quot;,serif;mso-fareast-font-family:&lt;br/&gt;     &amp;quot;Times New Roman&amp;quot;;mso-font-kerning:0pt;mso-ligatures:none;mso-ansi-language:&lt;br/&gt;     #2000;mso-fareast-language:#2000&quot;&gt;Методи для кожної опції меню&lt;/span&gt;&lt;/b&gt;&lt;span style=&quot;font-size:12.0pt;font-family:&amp;quot;Times New Roman&amp;quot;,serif;mso-fareast-font-family:&lt;br/&gt;     &amp;quot;Times New Roman&amp;quot;;mso-font-kerning:0pt;mso-ligatures:none;mso-ansi-language:&lt;br/&gt;     #2000;mso-fareast-language:#2000&quot;&gt;: Залежно від вибору користувача, ці&lt;br/&gt;     методи викликають функції для управління словниками та словниками.&lt;/span&gt;&lt;/li&gt;&lt;br/&gt;&lt;/ul&gt;&lt;p style=&quot;mso-margin-top-alt:auto;mso-margin-bottom-alt:&lt;br/&gt;auto;text-align:left;line-height:normal;mso-outline-level:3&quot; align=&quot;left&quot; class=&quot;MsoNormal&quot;&gt;&lt;b&gt;&lt;span style=&quot;font-size:13.5pt;font-family:&amp;quot;Times New Roman&amp;quot;,serif;mso-fareast-font-family:&lt;br/&gt;&amp;quot;Times New Roman&amp;quot;;mso-font-kerning:0pt;mso-ligatures:none;mso-ansi-language:&lt;br/&gt;#2000;mso-fareast-language:#2000&quot;&gt;Як вони взаємодіють:&lt;/span&gt;&lt;/b&gt;&lt;/p&gt;&lt;ul type=&quot;disc&quot;&gt;&lt;br/&gt; &lt;li style=&quot;mso-margin-top-alt:auto;mso-margin-bottom-alt:auto;&lt;br/&gt;     text-align:left;line-height:normal;mso-list:l0 level1 lfo6;tab-stops:list 36.0pt&quot; class=&quot;MsoNormal&quot;&gt;&lt;b&gt;&lt;span style=&quot;font-size:10.0pt;font-family:&amp;quot;Courier New&amp;quot;;mso-fareast-font-family:&lt;br/&gt;     &amp;quot;Times New Roman&amp;quot;;mso-font-kerning:0pt;mso-ligatures:none;mso-ansi-language:&lt;br/&gt;     #2000;mso-fareast-language:#2000&quot;&gt;DictionaryManager&lt;/span&gt;&lt;/b&gt;&lt;span style=&quot;font-size:12.0pt;font-family:&amp;quot;Times New Roman&amp;quot;,serif;mso-fareast-font-family:&lt;br/&gt;     &amp;quot;Times New Roman&amp;quot;;mso-font-kerning:0pt;mso-ligatures:none;mso-ansi-language:&lt;br/&gt;     #2000;mso-fareast-language:#2000&quot;&gt; керує створенням та вибором словників.&lt;/span&gt;&lt;/li&gt;&lt;br/&gt; &lt;li style=&quot;mso-margin-top-alt:auto;mso-margin-bottom-alt:auto;&lt;br/&gt;     text-align:left;line-height:normal;mso-list:l0 level1 lfo6;tab-stops:list 36.0pt&quot; class=&quot;MsoNormal&quot;&gt;&lt;b&gt;&lt;span style=&quot;font-size:10.0pt;font-family:&amp;quot;Courier New&amp;quot;;mso-fareast-font-family:&lt;br/&gt;     &amp;quot;Times New Roman&amp;quot;;mso-font-kerning:0pt;mso-ligatures:none;mso-ansi-language:&lt;br/&gt;     #2000;mso-fareast-language:#2000&quot;&gt;Dictionary&lt;/span&gt;&lt;/b&gt;&lt;span style=&quot;font-size:12.0pt;font-family:&amp;quot;Times New Roman&amp;quot;,serif;mso-fareast-font-family:&lt;br/&gt;     &amp;quot;Times New Roman&amp;quot;;mso-font-kerning:0pt;mso-ligatures:none;mso-ansi-language:&lt;br/&gt;     #2000;mso-fareast-language:#2000&quot;&gt; забезпечує основну функціональність для&lt;br/&gt;     роботи зі словниками, такими як додавання слів, редагування, видалення і&lt;br/&gt;     збереження у файл.&lt;/span&gt;&lt;/li&gt;&lt;br/&gt; &lt;li style=&quot;mso-margin-top-alt:auto;mso-margin-bottom-alt:auto;&lt;br/&gt;     text-align:left;line-height:normal;mso-list:l0 level1 lfo6;tab-stops:list 36.0pt&quot; class=&quot;MsoNormal&quot;&gt;&lt;b&gt;&lt;span style=&quot;font-size:10.0pt;font-family:&amp;quot;Courier New&amp;quot;;mso-fareast-font-family:&lt;br/&gt;     &amp;quot;Times New Roman&amp;quot;;mso-font-kerning:0pt;mso-ligatures:none;mso-ansi-language:&lt;br/&gt;     #2000;mso-fareast-language:#2000&quot;&gt;Menu&lt;/span&gt;&lt;/b&gt;&lt;span style=&quot;font-size:&lt;br/&gt;     12.0pt;font-family:&amp;quot;Times New Roman&amp;quot;,serif;mso-fareast-font-family:&amp;quot;Times New Roman&amp;quot;;&lt;br/&gt;     mso-font-kerning:0pt;mso-ligatures:none;mso-ansi-language:#2000;&lt;br/&gt;     mso-fareast-language:#2000&quot;&gt; та &lt;/span&gt;&lt;b&gt;&lt;span style=&quot;font-size:10.0pt;&lt;br/&gt;     font-family:&amp;quot;Courier New&amp;quot;;mso-fareast-font-family:&amp;quot;Times New Roman&amp;quot;;&lt;br/&gt;     mso-font-kerning:0pt;mso-ligatures:none;mso-ansi-language:#2000;&lt;br/&gt;     mso-fareast-language:#2000&quot;&gt;MenuOption&lt;/span&gt;&lt;/b&gt;&lt;span style=&quot;font-size:&lt;br/&gt;     12.0pt;font-family:&amp;quot;Times New Roman&amp;quot;,serif;mso-fareast-font-family:&amp;quot;Times New Roman&amp;quot;;&lt;br/&gt;     mso-font-kerning:0pt;mso-ligatures:none;mso-ansi-language:#2000;&lt;br/&gt;     mso-fareast-language:#2000&quot;&gt; створюють інтерфейс для користувача,&lt;br/&gt;     дозволяючи йому вибирати дії через меню.&lt;/span&gt;&lt;/li&gt;&lt;br/&gt;&lt;/ul&gt;&lt;p style=&quot;margin-bottom:0cm;text-align:left;&lt;br/&gt;line-height:normal&quot; align=&quot;left&quot; class=&quot;MsoNormal&quot;&gt;&lt;br/&gt;&lt;br/&gt;&lt;br/&gt;&lt;br/&gt;&lt;br/&gt;&lt;br/&gt;&lt;br/&gt;&lt;br/&gt;&lt;br/&gt;&lt;br/&gt;&lt;br/&gt;&lt;br/&gt;&lt;br/&gt;&lt;br/&gt;&lt;br/&gt;&lt;br/&gt;&lt;br/&gt;&lt;br/&gt;&lt;br/&gt;&lt;br/&gt;&lt;br/&gt;&lt;br/&gt;&lt;br/&gt;&lt;br/&gt;&lt;/p&gt;&lt;p class=&quot;MsoNormal&quot;&gt;&amp;nbsp;&lt;/p&gt;&lt;/div&gt;" style="text;whiteSpace=wrap;html=1;" parent="1" vertex="1">
          <mxGeometry y="-1780" width="1280" height="1770" as="geometry" />
        </mxCell>
        <mxCell id="6" value="1..* (entries)" style="text;whiteSpace=wrap;" vertex="1" parent="1">
          <mxGeometry x="320" y="455" width="100" height="40" as="geometry" />
        </mxCell>
        <mxCell id="8" value="1 (current_dictionary)" style="text;whiteSpace=wrap;" vertex="1" parent="1">
          <mxGeometry x="540" y="790" width="150" height="40" as="geometry" />
        </mxCell>
        <mxCell id="9" style="edgeStyle=orthogonalEdgeStyle;rounded=0;orthogonalLoop=1;jettySize=auto;html=1;entryX=0.465;entryY=0.003;entryDx=0;entryDy=0;entryPerimeter=0;" edge="1" parent="1" source="5PqPLyIiXaar_8xf2ug1-33" target="5PqPLyIiXaar_8xf2ug1-23">
          <mxGeometry relative="1" as="geometry" />
        </mxCell>
        <mxCell id="10" value="1..* (options)" style="text;whiteSpace=wrap;" vertex="1" parent="1">
          <mxGeometry x="260" y="820" width="100" height="40" as="geometry" />
        </mxCell>
      </root>
    </mxGraphModel>
  </diagram>
</mxfile>
